<svg width="213" height="92" viewBox="0 0 213 92" fill="none" xmlns="http://www.w3.org/2000/svg">
<path d="M14.3438 47C14.3438 50.6094 14.5781 53.6797 15.0469 56.2109C15.5156 58.6953 16.1953 60.7578 17.0859 62.3984C17.9766 63.9922 19.0312 65.1875 20.25 65.9844C21.5156 66.7812 22.9219 67.25 24.4688 67.3906V74.3516C21.6094 74.1641 19.0078 73.4844 16.6641 72.3125C14.3672 71.0938 12.4219 69.3828 10.8281 67.1797C9.23438 64.9297 7.99219 62.1875 7.10156 58.9531C6.21094 55.7188 5.76562 52.0156 5.76562 47.8438V22.1797H14.3438V47ZM46.0547 22.1797V47.8438C46.0547 52.0156 45.6094 55.7188 44.7188 58.9531C43.8281 62.1875 42.5625 64.9297 40.9219 67.1797C39.3281 69.3828 37.3828 71.0938 35.0859 72.3125C32.7891 73.4844 30.2109 74.1641 27.3516 74.3516V67.3906C28.8984 67.2031 30.2812 66.7344 31.5 65.9844C32.7656 65.1875 33.8438 63.9922 34.7344 62.3984C35.625 60.8047 36.3047 58.7656 36.7734 56.2812C37.2891 53.75 37.5469 50.6562 37.5469 47V22.1797H46.0547ZM57.2344 47.8438C57.2344 43.6719 57.7266 39.9922 58.7109 36.8047C59.7422 33.5703 61.1484 30.8516 62.9297 28.6484C64.7578 26.3984 66.8906 24.6875 69.3281 23.5156C71.8125 22.2969 74.5078 21.5937 77.4141 21.4062V28.4375C75.8203 28.625 74.3203 29.1172 72.9141 29.9141C71.5078 30.7109 70.2891 31.8828 69.2578 33.4297C68.2266 34.9766 67.4062 36.9453 66.7969 39.3359C66.1875 41.7266 65.8594 44.5625 65.8125 47.8438C65.8594 51.1719 66.1875 54.0312 66.7969 56.4219C67.4062 58.7656 68.2266 60.7344 69.2578 62.3281C70.3359 63.9219 71.5781 65.1406 72.9844 65.9844C74.3906 66.7812 75.8672 67.25 77.4141 67.3906V74.3516C74.5547 74.1641 71.8828 73.4844 69.3984 72.3125C66.9141 71.0938 64.7578 69.3828 62.9297 67.1797C61.1484 64.9297 59.7422 62.1875 58.7109 58.9531C57.7266 55.7188 57.2344 52.0156 57.2344 47.8438ZM80.2266 21.4062C83.0859 21.5469 85.7344 22.2266 88.1719 23.4453C90.6562 24.6641 92.7891 26.3984 94.5703 28.6484C96.3984 30.8516 97.8281 33.5703 98.8594 36.8047C99.8906 39.9922 100.406 43.6719 100.406 47.8438C100.406 52.0156 99.8906 55.7188 98.8594 58.9531C97.8281 62.1875 96.3984 64.9297 94.5703 67.1797C92.7891 69.3828 90.6797 71.0938 88.2422 72.3125C85.8047 73.4844 83.1328 74.1641 80.2266 74.3516V67.3906C81.8203 67.2031 83.3203 66.7109 84.7266 65.9141C86.1328 65.0703 87.3516 63.875 88.3828 62.3281C89.4141 60.7344 90.2344 58.7656 90.8438 56.4219C91.4531 54.0312 91.7812 51.1719 91.8281 47.8438C91.7812 44.5156 91.4531 41.6797 90.8438 39.3359C90.2344 36.9453 89.3906 34.9766 88.3125 33.4297C87.2812 31.8359 86.0625 30.6406 84.6562 29.8438C83.25 29 81.7734 28.5078 80.2266 28.3672V21.4062ZM112.289 22.1797H120.867L134.789 54.1719V67.1797H132.539L120.867 38.3516V74H112.289V22.1797ZM151.594 22.1797H160.172V74H151.594V38.3516L139.992 67.1797H137.672V54.3125L151.594 22.1797Z" fill="black"/>
<circle cx="192.5" cy="53.5" r="20.5" fill="#F13636"/>
</svg>
