<svg width="93" height="92" viewBox="0 0 93 92" fill="none" xmlns="http://www.w3.org/2000/svg">
<path d="M14.3438 47C14.3438 50.6094 14.5781 53.6797 15.0469 56.2109C15.5156 58.6953 16.1953 60.7578 17.0859 62.3984C17.9766 63.9922 19.0312 65.1875 20.25 65.9844C21.5156 66.7812 22.9219 67.25 24.4688 67.3906V74.3516C21.6094 74.1641 19.0078 73.4844 16.6641 72.3125C14.3672 71.0938 12.4219 69.3828 10.8281 67.1797C9.23438 64.9297 7.99219 62.1875 7.10156 58.9531C6.21094 55.7188 5.76562 52.0156 5.76562 47.8438V22.1797H14.3438V47ZM46.0547 22.1797V47.8438C46.0547 52.0156 45.6094 55.7188 44.7188 58.9531C43.8281 62.1875 42.5625 64.9297 40.9219 67.1797C39.3281 69.3828 37.3828 71.0938 35.0859 72.3125C32.7891 73.4844 30.2109 74.1641 27.3516 74.3516V67.3906C28.8984 67.2031 30.2812 66.7344 31.5 65.9844C32.7656 65.1875 33.8438 63.9922 34.7344 62.3984C35.625 60.8047 36.3047 58.7656 36.7734 56.2812C37.2891 53.75 37.5469 50.6562 37.5469 47V22.1797H46.0547Z" fill="black"/>
<circle cx="72.5" cy="46.5" r="20.5" fill="#F13636"/>
</svg>
